<?xml version="1.0" encoding="UTF-8"?> <!-- Generator: Adobe Illustrator 16.0.0, SVG Export Plug-In . SVG Version: 6.00 Build 0) --> <svg xmlns="http://www.w3.org/2000/svg" xmlns:xlink="http://www.w3.org/1999/xlink" id="Layer_1" x="0px" y="0px" width="587.334px" height="99.212px" viewBox="0 0 587.334 99.212" xml:space="preserve"> <g> <g> <polygon fill="#ED1C24" points="99.209,79.369 79.369,99.207 5.976,99.212 0,93.234 0,19.842 19.843,0 93.234,0 99.209,5.975 "></polygon> <polygon fill="#FFFFFF" points="93.234,0 70.92,22.314 70.92,54.884 52.641,29.766 14.11,29.766 14.11,37.659 25.468,37.659 25.468,67.767 0.002,93.234 0.002,99.212 5.976,99.207 34.027,71.156 34.027,37.659 45.381,37.659 45.381,69.445 53.831,69.445 53.831,44.326 72.111,69.445 79.369,69.445 79.369,25.815 99.21,5.975 99.209,0 "></polygon> <g> <path d="M130.955,39.402h-11.904v-9.637h34.809v9.637h-11.903v30.042h-11.001V39.402z"></path> <path d="M159.643,29.766h31.914v9.349h-21.03v6.015h19.045v8.675h-19.045v6.289h21.315v9.352h-32.199V29.766z"></path> <path d="M209.949,49.266l-13.042-19.5h12.645l7.028,11.166l7.09-11.166h12.354L222.99,49.153l13.605,20.292h-12.644l-7.6-11.959 l-7.65,11.959h-12.359L209.949,49.266z"></path> <path d="M241.795,29.766h10.998v14.852h14.117V29.766h10.998v39.679H266.91v-15.08h-14.117v15.08h-10.998V29.766z"></path> <path d="M284.513,49.606c0-11.397,9.184-20.636,21.431-20.636c12.242,0,21.313,9.128,21.313,20.636 c0,11.395-9.184,20.635-21.426,20.635C293.58,70.242,284.513,61.111,284.513,49.606z M316.031,49.606 c0-5.727-4.137-10.718-10.201-10.718c-6.014,0-10.037,4.876-10.037,10.718c0,5.727,4.141,10.709,10.15,10.709 C312.004,60.316,316.031,55.445,316.031,49.606z"></path> <path d="M333.912,29.766h11.004v14.852h14.111V29.766h11.002v39.679h-11.002v-15.08h-14.111v15.08h-11.004V29.766z"></path> <path d="M378.584,29.766h10.887v22.332l15.367-22.332h10.256v39.679h-10.885V47.112l-15.365,22.333h-10.26V29.766z"></path> <path d="M423.656,29.766h10.994v16.101l13.664-16.101h13.039l-15.021,17.061l15.529,22.619h-13.205l-9.977-14.736l-4.029,4.475 v10.262h-10.994V29.766z"></path> <path d="M461.947,49.606c0-11.397,9.18-20.636,21.424-20.636c12.246,0,21.32,9.128,21.32,20.636 c0,11.395-9.188,20.635-21.43,20.635C471.014,70.242,461.947,61.111,461.947,49.606z M493.459,49.606 c0-5.727-4.131-10.718-10.197-10.718c-6.014,0-10.035,4.876-10.035,10.718c0,5.727,4.135,10.709,10.145,10.709 C489.438,60.316,493.459,55.445,493.459,49.606z"></path> <path d="M553.828,29.766h10.996v12.467h6.01c9.525,0,16.5,4.539,16.5,13.49c0,8.566-6.236,13.723-15.93,13.723h-17.576V29.766z M570.553,60.207c3.625,0,5.781-1.645,5.781-4.762c0-2.777-2.156-4.592-5.727-4.592h-5.783v9.354H570.553z"></path> <path d="M514.426,29.766v17.407c0,4.114-0.416,10.065-3.131,12.17c-1.275,0.986-3.379,1.742-4.711,1.742v9.355h1.043 c3.803,0,8.064-1.529,9.701-2.568c6.633-4.211,7.453-12.221,7.453-21.269v-7.201h9.492v30.042h10.998V29.766H514.426z"></path> </g> </g> <rect x="0.001" fill="none" width="587.332" height="99.212"></rect> </g> </svg> 