<svg width="24" height="24" viewBox="0 0 24 24" fill="none" xmlns="http://www.w3.org/2000/svg">
<path d="M17.3438 9.34375V8L12 11.3438L6.65625 8V9.34375L12 12.6562L17.3438 9.34375ZM17.3438 6.65625C17.6979 6.65625 18 6.79167 18.25 7.0625C18.5208 7.33333 18.6562 7.64583 18.6562 8V16C18.6562 16.3542 18.5208 16.6667 18.25 16.9375C18 17.2083 17.6979 17.3438 17.3438 17.3438H6.65625C6.30208 17.3438 5.98958 17.2083 5.71875 16.9375C5.46875 16.6667 5.34375 16.3542 5.34375 16V8C5.34375 7.64583 5.46875 7.33333 5.71875 7.0625C5.98958 6.79167 6.30208 6.65625 6.65625 6.65625H17.3438Z" fill="white"/>
</svg>
