<svg width="48" height="48" viewBox="0 0 48 48" fill="none" xmlns="http://www.w3.org/2000/svg">
<path d="M25.5019 34.5027C25.5019 34.9005 25.3439 35.282 25.0626 35.5633C24.7812 35.8446 24.3997 36.0027 24.0019 36.0027C23.6041 36.0027 23.2225 35.8446 22.9412 35.5633C22.6599 35.282 22.5019 34.9005 22.5019 34.5027V17.1237L16.0639 23.5647C15.9244 23.7041 15.7589 23.8148 15.5766 23.8903C15.3944 23.9657 15.1991 24.0046 15.0019 24.0046C14.8047 24.0046 14.6094 23.9657 14.4271 23.8903C14.2449 23.8148 14.0794 23.7041 13.9399 23.5647C13.8004 23.4252 13.6898 23.2597 13.6143 23.0774C13.5388 22.8952 13.5 22.6999 13.5 22.5027C13.5 22.3055 13.5388 22.1101 13.6143 21.9279C13.6898 21.7457 13.8004 21.5801 13.9399 21.4407L22.9399 12.4407C23.0792 12.301 23.2448 12.1902 23.427 12.1145C23.6092 12.0389 23.8046 12 24.0019 12C24.1992 12 24.3946 12.0389 24.5768 12.1145C24.759 12.1902 24.9246 12.301 25.0639 12.4407L34.0639 21.4407C34.3456 21.7223 34.5038 22.1044 34.5038 22.5027C34.5038 22.901 34.3456 23.283 34.0639 23.5647C33.7822 23.8463 33.4002 24.0046 33.0019 24.0046C32.6036 24.0046 32.2216 23.8463 31.9399 23.5647L25.5019 17.1237V34.5027Z" fill="#19D183"/>
</svg>
