<svg width="30" height="23" viewBox="0 0 30 23" fill="none" xmlns="http://www.w3.org/2000/svg">
<path fill-rule="evenodd" clip-rule="evenodd" d="M4.08984 22.0351C7.82149 22.0351 10.6428 17.1766 13.1721 11.8724C14.3894 9.30083 15.5245 6.60642 16.6597 4.32214C17.9062 1.78836 19.1849 0 20.7494 0C22.0756 0 23.3236 1.07097 24.5656 2.74907C27.1408 6.23311 29.3666 12.1333 29.3666 16.003C29.3666 19.2447 27.698 22.0351 24.2784 22.0351H4.08984Z" fill="#64CDFF"/>
<path fill-rule="evenodd" clip-rule="evenodd" d="M13.172 11.8724C10.6087 6.70476 9.44816 2.91324 7.18099 2.91324C5.77212 2.91324 4.1855 4.39055 2.74931 6.81146C1.21069 9.38041 0 13.0054 0 16.906C0 19.986 1.50749 22.0351 4.08974 22.0351C7.82044 22.0351 10.6427 17.1766 13.172 11.8724Z" fill="#2855AF"/>
</svg>
