<svg width="982" height="209" viewBox="0 0 982 209" fill="none" xmlns="http://www.w3.org/2000/svg">
<path fill-rule="evenodd" clip-rule="evenodd" d="M643.805 1H946.195C965.725 1 982 17.25 982 36.75V173.25C982 192.75 966.05 209 946.195 209H643.805C624.275 209 608 193.075 608 173.25V36.75C608 17.25 624.275 1 643.805 1ZM688.073 77.375H724.529L726.157 64.05H671.473V143.35H688.073V109.875H719.972L721.925 95.9H688.073V77.375ZM759.032 144.65C767.821 144.65 774.982 142.05 780.515 136.2C785.398 131 787.676 124.5 787.676 116.7C787.676 107.925 785.398 101.425 781.166 96.875C777.26 92.975 772.052 91.025 765.868 91.025C761.636 91.025 758.056 91.675 754.801 92.975C753.824 93.3 752.848 93.625 751.546 94.6L754.475 76.725H784.747V63.4H742.432L736.247 107.6H750.244C750.598 107.247 750.909 106.893 751.193 106.571C751.692 106.003 752.107 105.532 752.522 105.325C754.475 104.025 757.079 103.375 759.683 103.375C763.264 103.375 766.193 104.35 768.472 106.3C771.076 108.575 772.378 112.15 772.378 116.7C772.378 121.575 771.401 125.15 768.797 127.75C766.519 130.025 763.589 131 760.009 131C757.73 131 755.126 130.025 752.848 128.4C750.569 126.45 749.267 124.5 749.267 122.225H734.62C734.62 128.075 736.573 132.95 740.153 137.175C744.385 142.05 750.895 144.65 759.032 144.65Z" fill="#231F20"/>
<path fill-rule="evenodd" clip-rule="evenodd" d="M145.79 109C145.79 132.748 128.339 152 106.812 152C85.2845 152 67.833 132.748 67.833 109C67.833 85.2518 85.2845 66 106.812 66C128.339 66 145.79 85.2518 145.79 109ZM127.8 109C127.8 123.953 118.404 136.074 106.812 136.074C95.2203 136.074 85.8234 123.953 85.8234 109C85.8234 94.0474 95.2203 81.9259 106.812 81.9259C118.404 81.9259 127.8 94.0474 127.8 109Z" fill="#231F20"/>
<path d="M25.8171 111.5L16.7052 121V149H0V69H16.7052V101L47.5844 69H66.8206L36.4476 101L69.8579 149H50.1155L25.8171 111.5Z" fill="#231F20"/>
<path d="M333.655 69H350.62V100.5H378.896V69H395.861V149H378.896V116.407H350.62V149H333.655V69Z" fill="#231F20"/>
<path d="M156.5 69H179.583L196.255 120.852L212.926 69H233.445V149H218.056V95.6667L202.667 149H189.842L171.889 93V149H156.5V69Z" fill="#231F20"/>
<path fill-rule="evenodd" clip-rule="evenodd" d="M292.983 69H274.992L245.009 149H262.999L269.662 131.222H298.314L304.976 149H322.966L292.983 69ZM292.761 116.407L283.988 93L275.215 116.407H292.761Z" fill="#231F20"/>
<path fill-rule="evenodd" clip-rule="evenodd" d="M424.229 69H476.876V135H487V166H470.295V149H425.748V166H409.043V135H412.08C414.105 135 417.142 133.5 419.167 130C419.569 129.306 419.941 128.695 420.288 128.128L420.289 128.126C424.208 121.707 424.694 120.91 424.229 69ZM439.416 83H460.677V135H433.847C440.17 127.089 439.824 108.164 439.531 92.17L439.531 92.1435C439.472 88.9405 439.416 85.8552 439.416 83Z" fill="#231F20"/>
<path fill-rule="evenodd" clip-rule="evenodd" d="M540.017 69H522.026L492.043 149H510.033L516.695 131.222H545.347L552.01 149H570L540.017 69ZM539.794 116.407L531.021 93L522.249 116.407H539.794Z" fill="#231F20"/>
</svg>
