<svg width="24" height="24" viewBox="0 0 24 24" fill="none" xmlns="http://www.w3.org/2000/svg">
<path d="M17.3438 14.25C17.5312 14.25 17.6875 14.3125 17.8125 14.4375C17.9375 14.5625 18 14.7188 18 14.9062V17.2188C18 17.7396 17.7812 18 17.3438 18C14.2396 18 11.5729 16.8854 9.34375 14.6562C7.11458 12.4271 6 9.76042 6 6.65625C6 6.21875 6.26042 6 6.78125 6H9.09375C9.28125 6 9.4375 6.0625 9.5625 6.1875C9.6875 6.3125 9.75 6.46875 9.75 6.65625C9.75 7.46875 9.875 8.25 10.125 9C10.2083 9.27083 10.1562 9.5 9.96875 9.6875L8.6875 10.8125C9.64583 12.8125 11.1771 14.3229 13.2812 15.3438L14.3125 14.0312C14.4375 13.9062 14.5938 13.8438 14.7812 13.8438C14.8854 13.8438 14.9583 13.8542 15 13.875C15.75 14.125 16.5312 14.25 17.3438 14.25Z" fill="white"/>
</svg>
