<svg width="44" height="44" viewBox="0 0 44 44" fill="none" xmlns="http://www.w3.org/2000/svg">
<path d="M22 22C23.0125 22 23.8334 21.1792 23.8334 20.1666C23.8334 19.1541 23.0125 18.3333 22 18.3333C20.9875 18.3333 20.1667 19.1541 20.1667 20.1666C20.1667 21.1792 20.9875 22 22 22Z" fill="white"/>
<path d="M29.3333 22C30.3459 22 31.1667 21.1792 31.1667 20.1666C31.1667 19.1541 30.3459 18.3333 29.3333 18.3333C28.3208 18.3333 27.5 19.1541 27.5 20.1666C27.5 21.1792 28.3208 22 29.3333 22Z" fill="white"/>
<path d="M14.6666 22C15.6792 22 16.5 21.1792 16.5 20.1666C16.5 19.1541 15.6792 18.3333 14.6666 18.3333C13.6541 18.3333 12.8333 19.1541 12.8333 20.1666C12.8333 21.1792 13.6541 22 14.6666 22Z" fill="white"/>
<path d="M34.8334 5.5H9.16669C7.708 5.5 6.30905 6.07946 5.2776 7.11091C4.24615 8.14236 3.66669 9.54131 3.66669 11V38.5C3.66725 38.8249 3.75412 39.1437 3.9184 39.424C4.08269 39.7042 4.3185 39.9358 4.60169 40.095C4.87569 40.2503 5.18508 40.3324 5.50002 40.3333C5.82907 40.3332 6.15203 40.2446 6.43502 40.0767L14.6667 35.09C14.971 34.9089 15.3212 34.8197 15.675 34.8333H34.8334C36.292 34.8333 37.691 34.2539 38.7224 33.2224C39.7539 32.191 40.3334 30.792 40.3334 29.3333V11C40.3334 9.54131 39.7539 8.14236 38.7224 7.11091C37.691 6.07946 36.292 5.5 34.8334 5.5ZM36.6667 29.3333C36.6667 29.8196 36.4735 30.2859 36.1297 30.6297C35.7859 30.9735 35.3196 31.1667 34.8334 31.1667H15.675C14.6737 31.1659 13.6912 31.4384 12.8334 31.955L7.33335 35.255V11C7.33335 10.5138 7.52651 10.0475 7.87033 9.70364C8.21414 9.35982 8.68046 9.16667 9.16669 9.16667H34.8334C35.3196 9.16667 35.7859 9.35982 36.1297 9.70364C36.4735 10.0475 36.6667 10.5138 36.6667 11V29.3333Z" fill="white"/>
</svg>
