<svg width="24" height="24" viewBox="0 0 24 24" fill="none" xmlns="http://www.w3.org/2000/svg">
<rect width="24" height="24" rx="12" fill="#E4E4E4"/>
<path fill-rule="evenodd" clip-rule="evenodd" d="M18.4178 7.72649C18.6416 7.95026 18.8029 8.22868 18.8857 8.5341C19.191 9.66157 19.2 12 19.2 12C19.2 12 19.2 14.3476 18.8952 15.4661C18.8123 15.7715 18.651 16.05 18.4273 16.2737C18.2035 16.4975 17.9251 16.6588 17.6196 16.7416C16.5012 17.0467 12 17.0467 12 17.0467C12 17.0467 7.49892 17.0467 6.38067 16.7414C6.07526 16.6586 5.79684 16.4973 5.57307 16.2735C5.34931 16.0497 5.18799 15.7713 5.10515 15.4659C4.80005 14.3384 4.80005 12 4.80005 12C4.80005 12 4.80005 9.66157 5.09592 8.5431C5.17876 8.23768 5.34008 7.95926 5.56385 7.73549C5.78761 7.51173 6.06603 7.35041 6.37145 7.26757C7.48992 6.96225 11.991 6.95325 11.991 6.95325C11.991 6.95325 16.4919 6.95325 17.6102 7.25857C17.9156 7.34141 18.194 7.50273 18.4178 7.72649ZM14.2921 12L10.5583 14.1627L10.558 9.8373L14.2921 12Z" fill="white"/>
</svg>
